<svg xmlns="http://www.w3.org/2000/svg" viewBox="0 0 500 500"><g id="freepik--Shadow--inject-63"><ellipse id="freepik--path--inject-63" cx="250" cy="416.24" rx="193.89" ry="11.32" style="fill:#f5f5f5"></ellipse></g><g id="freepik--character-1--inject-63"><path d="M137.82,145.88c-8.06,8.11,5.64,20.7-3.41,26.48,7.39,3.71,33.29,8.42,40-6.17-4.89-3.8-1.49-13.14-6-22.11C161.66,130.78,129.76,136.67,137.82,145.88Z" style="fill:#263238"></path><path d="M138.55,145.67c-2.51-.42-11,3.8-4.68,15.13,5.09,9.16.85,9.81.85,9.81s5,.14,2-6.67C133.54,156.67,132.05,149.13,138.55,145.67Z" style="fill:#263238"></path><path d="M198,217.61a2.46,2.46,0,0,0-3.3-1l-.59.31c-.19.1-.55.34-.84.51s-.63.36-.95.52a15.54,15.54,0,0,1-1.95.82,12.28,12.28,0,0,1-3.85.73,10.57,10.57,0,0,1-3.55-.57,12.76,12.76,0,0,1-2.09-1c-.86-1.9-1.68-3.82-2.38-5.8-.85-2.31-1.6-4.67-2.26-7.06s-1.24-4.81-1.72-7.24c-.25-1.21-.47-2.43-.67-3.64l-.27-1.81c-.09-.58-.17-1.24-.22-1.7l0-.2a5,5,0,0,0-10,1c.07.85.13,1.5.22,2.21s.19,1.39.29,2.08c.22,1.38.47,2.74.75,4.1a76.87,76.87,0,0,0,2.1,8c.39,1.32.87,2.62,1.32,3.93s1,2.59,1.57,3.86a72.36,72.36,0,0,0,3.71,7.49l.12.22a3.89,3.89,0,0,0,1.55,1.54,20.26,20.26,0,0,0,6.05,2.14,16.83,16.83,0,0,0,6.56-.14,17.3,17.3,0,0,0,8.09-4.39c.37-.34.72-.69,1-1.06s.62-.72,1-1.24A2.46,2.46,0,0,0,198,217.61Z" style="fill:#ff8b7b"></path><path d="M204.65,208.25h-.29a6.23,6.23,0,0,0-5,2.34l-4.83,6.06,0,4.14c3.88,1.54,8.8-2.61,8.8-2.61l2.49-.63a3.49,3.49,0,0,0,2.61-3.88l-.36-2.43A3.48,3.48,0,0,0,204.65,208.25Z" style="fill:#ff8b7b"></path><path d="M173.23,184.88c3.23,3.32,3.43,13.23,3.43,13.23l-12.92,10.4s-5.31-14.7-2.37-19.89C163.86,184.22,169.11,180.65,173.23,184.88Z" style="fill:#407BFF"></path><g style="opacity:0.2"><path d="M173.23,184.88c3.23,3.32,3.43,13.23,3.43,13.23l-12.92,10.4s-5.31-14.7-2.37-19.89C163.86,184.22,169.11,180.65,173.23,184.88Z" style="fill:#fff"></path></g><polygon points="151.85 407.67 158.99 408.45 159.97 389.05 152.83 388.26 151.85 407.67" style="fill:#ff8b7b"></polygon><path d="M160.16,403.79h-8.39a.65.65,0,0,0-.67.61l-.56,7.93a1.59,1.59,0,0,0,1.55,1.59c3.54,0,3.58,0,8,0H172c3.66,0,3.67-3.71,2.09-4.05-7.11-1.5-9.88-3.58-12.39-5.56A2.5,2.5,0,0,0,160.16,403.79Z" style="fill:#263238"></path><polygon points="159.97 389.06 159.46 399.06 152.28 399.06 152.83 388.27 159.97 389.06" style="opacity:0.2"></polygon><path d="M163.82,234.27S170,286,170,309c-4.87,32-9,88.16-9,88.16l-9.88-.26s-4.49-61.16-.33-87.57c-5.33-23.66-11.91-78.26-11.91-78.26Z" style="fill:#263238"></path><path d="M144.77,248.67a29.51,29.51,0,0,0-3.42,1.78c1.36,10.21,3.15,23.06,5.05,34.92C149.64,275.61,147.89,254.15,144.77,248.67Z" style="opacity:0.2"></path><polygon points="74.53 389.66 80.42 393.77 90.58 377.21 84.69 373.1 74.53 389.66" style="fill:#ff8b7b"></polygon><path d="M81.91,391.6l-5-6.73a.64.64,0,0,0-.88-.17l-6.7,4.3a1.58,1.58,0,0,0-.35,2.19c2.09,2.85,2.13,2.87,4.76,6.41,1.63,2.17,4.88,6.54,7.12,9.55s5.17.73,4.49-.75c-3-6.59-3-10-2.94-13.24A2.54,2.54,0,0,0,81.91,391.6Z" style="fill:#263238"></path><polygon points="90.57 377.21 85.34 385.75 79.03 382.31 84.69 373.1 90.57 377.21" style="opacity:0.2"></polygon><path d="M110.66,396.6c-5.11,0-15.75,0-15.93-7.52-.14-5.9,7.16-8.35,13.46-8.65a5.32,5.32,0,0,1,5.57,5.06v.4c7.14-.34,11.76-1.9,13.45-4.56,3.81-6-3.49-21.49-10.54-36.46-8.3-17.61-17.7-37.56-17.88-56.67a5.32,5.32,0,0,1,5.27-5.37h0a5.33,5.33,0,0,1,5.32,5.27c.16,16.78,9,35.61,16.86,52.23,9,19.18,16.85,35.75,9.9,46.7C132.11,393.47,123.76,396.6,110.66,396.6Z" style="fill:#407BFF"></path><path d="M155.91,233.25s-17.06,59.12-25.39,80.56c-16.14,28.06-42.92,71-42.92,71l-8.55-5s20-49.6,33.45-72.7c3.61-24,17.26-77.26,17.26-77.26Z" style="fill:#263238"></path><path d="M83.45,396.43a2.85,2.85,0,0,0,1.48,1.21,1,1,0,0,0,1-.33.7.7,0,0,0,.22-.61c-.12-1.2-3.22-2.76-3.84-3.06a.16.16,0,0,0-.2.07.23.23,0,0,0,0,.25A14.78,14.78,0,0,0,83.45,396.43Zm2.13,0a.83.83,0,0,1,.17.38.24.24,0,0,1-.08.21.69.69,0,0,1-.66.22c-.66-.13-1.53-1.2-2.37-2.89A10.54,10.54,0,0,1,85.58,396.39Z" style="fill:#407BFF"></path><path d="M82.06,394l.06.05c1,.55,3.6,1,4.17.17a.87.87,0,0,0-.05-1c-1-1.77-4,.31-4.13.4a.24.24,0,0,0-.09.2A.33.33,0,0,0,82.06,394Zm3.8-.58a1,1,0,0,1,.08.11c.11.19.13.33.07.41-.33.48-2.25.31-3.37-.13C83.39,393.36,85.14,392.45,85.86,393.42Z" style="fill:#407BFF"></path><path d="M165,405.44a2.89,2.89,0,0,0,1.86-.47,1,1,0,0,0,.31-1,.75.75,0,0,0-.36-.55c-1-.61-4.13.94-4.74,1.26a.17.17,0,0,0-.08.2.27.27,0,0,0,.19.17A13.93,13.93,0,0,0,165,405.44Zm1.24-1.73a.76.76,0,0,1,.41.09c.05,0,.1.07.12.19a.68.68,0,0,1-.22.66c-.49.45-1.87.51-3.73.18A10.42,10.42,0,0,1,166.19,403.71Z" style="fill:#407BFF"></path><path d="M162.18,405.1l.07,0c1-.46,2.95-2.29,2.63-3.24a.87.87,0,0,0-.8-.53c-2-.23-2.14,3.39-2.15,3.54a.24.24,0,0,0,.11.2A.24.24,0,0,0,162.18,405.1Zm1.8-3.4h.14c.21,0,.34.09.37.19.19.55-1.09,2-2.12,2.63C162.46,403.65,162.78,401.7,164,401.7Z" style="fill:#407BFF"></path><path d="M129.76,229.9l34.06,4.36c7.68-25.86,10.21-38.35,10.89-44.36a6.53,6.53,0,0,0-4.52-7c-2-.64-4.58-1.4-7.14-2-.87-.23-1.76-.44-2.63-.64a109.08,109.08,0,0,0-15.46-2c-.77-.07-1.53-.11-2.3-.15-1.51-.08-3-.1-4.36-.1a7.35,7.35,0,0,0-7.33,8c.27,3,.48,5.79.64,8.35.38,6,.5,10.8.41,15A129.36,129.36,0,0,1,129.76,229.9Z" style="fill:#407BFF"></path><g style="opacity:0.30000000000000004"><path d="M129.76,229.9l34.06,4.36c7.68-25.86,10.21-38.35,10.89-44.36a6.53,6.53,0,0,0-4.52-7c-2-.64-4.58-1.4-7.14-2-.87-.23-1.76-.44-2.63-.64a109.08,109.08,0,0,0-15.46-2c-.77-.07-1.53-.11-2.3-.15-1.51-.08-3-.1-4.36-.1a7.35,7.35,0,0,0-7.33,8c.27,3,.48,5.79.64,8.35.38,6,.5,10.8.41,15A129.36,129.36,0,0,1,129.76,229.9Z" style="fill:#fff"></path></g><path d="M132,209.32c4.5-5.82,6.13-12.48,4.67-16.15l-5.08,1.14C132,200.29,132.11,205.11,132,209.32Z" style="fill:#407BFF;opacity:0.30000000000000004"></path><path d="M163.05,180.84c-.88-.23-1.76-.44-2.63-.64a110.65,110.65,0,0,0-15.47-2c-.77-.06-1.53-.1-2.29-.14l-1.33-.06,1,1.75c.14.24,3.54,5.8,12,11.78l1.81,1.26,1.74-1.33a13.14,13.14,0,0,0,5.48-10.53Z" style="fill:#fff"></path><path d="M148.71,167.92c-.32,4.21-1.31,8.5-3.76,10.3,0,0,3.12,5.19,11.2,10.86,5.06-3.87,4.27-8.88,4.27-8.88-5.38-2-5-5.73-2.73-11.68l-4.2-2.26A2.75,2.75,0,0,0,148.71,167.92Z" style="fill:#ff8b7b"></path><path d="M153.49,166.26a2.75,2.75,0,0,0-4.73,1.28,17,17,0,0,0,7.35,7.51,18.21,18.21,0,0,1,1.57-6.53Z" style="opacity:0.2"></path><path d="M142.17,154.72c2.09,8.13,2.8,11.61,7.77,15,7.47,5.14,17,.8,17.37-7.78.35-7.73-3.12-19.73-11.8-21.45A11.45,11.45,0,0,0,142.17,154.72Z" style="fill:#ff8b7b"></path><path d="M162.86,142.17a43.9,43.9,0,0,1-17,9.37s6.21,13.21-5.41,9.88c-3.37-11.25,0-17.09,3-19.84C152.69,138.58,159.19,137.58,162.86,142.17Z" style="fill:#263238"></path><path d="M141.78,162.73a6.14,6.14,0,0,0,3.44,3.18c2,.72,3.19-1,2.76-3-.39-1.79-1.91-4.33-4-4.2A2.75,2.75,0,0,0,141.78,162.73Z" style="fill:#ff8b7b"></path><path d="M129.51,227.84l-1.93,2.85c-.15.22.1.5.49.55l35.72,4.58c.31,0,.58-.08.63-.27l.7-3c0-.21-.2-.42-.53-.47l-34.5-4.42A.6.6,0,0,0,129.51,227.84Z" style="fill:#407BFF"></path><path d="M133.64,232.29l-.92-.12c-.18,0-.31-.14-.28-.25l.94-3.91a.33.33,0,0,1,.38-.16l.93.12c.18,0,.31.13.28.25l-.94,3.9C134,232.24,133.83,232.31,133.64,232.29Z" style="fill:#263238"></path><path d="M161.15,235.81l-.92-.11c-.18,0-.31-.14-.28-.26l.94-3.9c0-.11.2-.19.38-.17l.93.12c.18,0,.31.14.28.25l-.94,3.91C161.51,235.76,161.34,235.84,161.15,235.81Z" style="fill:#263238"></path><path d="M147.4,234.05l-.92-.12c-.19,0-.32-.13-.29-.25l.94-3.9c0-.12.2-.19.39-.17l.92.12c.18,0,.31.14.29.25l-.95,3.91C147.76,234,147.58,234.07,147.4,234.05Z" style="fill:#263238"></path><path d="M156.1,154.37c.12.67.58,1.15,1,1.06s.69-.69.56-1.36-.59-1.15-1-1.06S156,153.7,156.1,154.37Z" style="fill:#263238"></path><path d="M163.66,152.92c.13.67.59,1.14,1,1.06s.69-.7.56-1.37-.59-1.14-1-1.06S163.54,152.25,163.66,152.92Z" style="fill:#263238"></path><path d="M164,151.63l1.52-.78S165,152.27,164,151.63Z" style="fill:#263238"></path><path d="M161.66,154.42a18.53,18.53,0,0,0,3.21,3.81,2.91,2.91,0,0,1-2.3.91Z" style="fill:#ff5652"></path><path d="M156.94,161.84a.2.2,0,0,0,.24.31,5.37,5.37,0,0,1,4.88,0,.2.2,0,0,0,.27-.07.21.21,0,0,0-.06-.28,5.78,5.78,0,0,0-5.27,0S157,161.82,156.94,161.84Z" style="fill:#263238"></path><path d="M153.49,152.31a.36.36,0,0,0,.14-.16,3.17,3.17,0,0,1,2.26-1.79.4.4,0,0,0,.35-.45.39.39,0,0,0-.44-.35,4,4,0,0,0-2.89,2.24.4.4,0,0,0,.58.51Z" style="fill:#263238"></path><path d="M165.91,147.24l.05-.05a.4.4,0,0,0-.1-.56,4,4,0,0,0-3.62-.54.41.41,0,0,0-.22.52.4.4,0,0,0,.52.22,3.16,3.16,0,0,1,2.86.46A.39.39,0,0,0,165.91,147.24Z" style="fill:#263238"></path><path d="M156.47,153.08l1.52-.77S157.4,153.72,156.47,153.08Z" style="fill:#263238"></path><path d="M104.11,293.47a5.32,5.32,0,0,1-5.32-5.27c-.14-14.2,4.59-26.19,13.68-34.67,11.19-10.44,28.64-15.29,49.16-13.67,14.39,1.14,23.62-2.36,34.3-6.43,1.76-.66,3.53-1.34,5.35-2a5.32,5.32,0,1,1,3.64,10c-1.77.64-3.49,1.3-5.2,1.95-10.89,4.14-22.14,8.41-38.93,7.09-17.5-1.39-32.08,2.46-41.06,10.84-7,6.48-10.41,15.49-10.3,26.79a5.32,5.32,0,0,1-5.27,5.37Z" style="fill:#407BFF"></path><path d="M191.21,215.28H214a7.17,7.17,0,0,1,7.17,7.17v25.69a7.17,7.17,0,0,1-7.17,7.17H191.21a0,0,0,0,1,0,0v-40A0,0,0,0,1,191.21,215.28Z" transform="translate(480.74 385.31) rotate(159.88)" style="fill:#407BFF"></path><path d="M191.21,215.28H214a7.17,7.17,0,0,1,7.17,7.17v25.69a7.17,7.17,0,0,1-7.17,7.17H191.21a0,0,0,0,1,0,0v-40A0,0,0,0,1,191.21,215.28Z" transform="translate(480.74 385.31) rotate(159.88)" style="fill:#fff;opacity:0.7000000000000001"></path><path d="M203.84,214.84l9.55-3.49,13.76,37.58-9.55,3.5a5.77,5.77,0,0,1-1.42-2.2l-12-32.79A5.7,5.7,0,0,1,203.84,214.84Z" style="fill:#407BFF;opacity:0.2"></path><rect x="235" y="220.7" width="1" height="6.66" transform="translate(-62.68 94.66) rotate(-20.12)" style="fill:#407BFF"></rect><path d="M232.45,217.16l-3.37-9.22a8.16,8.16,0,0,0-7.65-5.33,8,8,0,0,0-2.78.49l-6.08,2.23-.35-.94,6.09-2.23a9,9,0,0,1,3.12-.55,9.18,9.18,0,0,1,8.59,6l3.37,9.22Z" style="fill:#407BFF"></path><rect x="212.75" y="205.65" width="20.74" height="46.89" rx="5.62" transform="matrix(-0.94, 0.34, -0.34, -0.94, 511.43, 367.47)" style="fill:#407BFF"></rect><path d="M222.2,217.87a3,3,0,1,1-3.84-1.79A3,3,0,0,1,222.2,217.87Z" style="fill:#263238"></path><path d="M229.67,238.26a3,3,0,1,1-3.85-1.79A3,3,0,0,1,229.67,238.26Z" style="fill:#263238"></path><path d="M142,235.85l-.08-.09c-1.56-1.56-3.21-3.26-4.7-5s-2.95-3.48-4.28-5.28a49.41,49.41,0,0,1-3.55-5.51,28.72,28.72,0,0,1-1.93-4.27c.6-2,1.24-4,2-5.92.87-2.31,1.85-4.58,2.92-6.82s2.21-4.44,3.44-6.59c.6-1.08,1.23-2.15,1.88-3.2l1-1.54c.31-.5.68-1,.94-1.43l.11-.16a5,5,0,0,0-8.16-5.77c-.5.68-.88,1.22-1.28,1.81s-.76,1.18-1.14,1.77c-.73,1.18-1.44,2.37-2.12,3.58a79,79,0,0,0-3.67,7.44c-.56,1.26-1,2.55-1.57,3.84s-.95,2.6-1.35,3.94a73.83,73.83,0,0,0-2.09,8.09l0,.23a4,4,0,0,0,.15,2.19,32.78,32.78,0,0,0,3.83,7.24,48.22,48.22,0,0,0,4.94,6,61.7,61.7,0,0,0,5.59,5.05,59.47,59.47,0,0,0,6.17,4.31,2.48,2.48,0,0,0,3-3.9Z" style="fill:#ff8b7b"></path><path d="M153.62,240.82l-.13-.26a6.2,6.2,0,0,0-4.37-3.4l-7.59-1.54-3.71,1.85c.4,4.16,6.34,6.65,6.34,6.65l1.69,1.93a3.5,3.5,0,0,0,4.64.55l2-1.43A3.48,3.48,0,0,0,153.62,240.82Z" style="fill:#ff8b7b"></path><path d="M135.19,178.65c-4.21,1.93-8.69,8.61-8.69,8.61l9,16.85s10.23-11.79,9.37-17.69C144.17,181.41,140.55,176.19,135.19,178.65Z" style="fill:#407BFF"></path><g style="opacity:0.30000000000000004"><path d="M135.19,178.65c-4.21,1.93-8.69,8.61-8.69,8.61l9,16.85s10.23-11.79,9.37-17.69C144.17,181.41,140.55,176.19,135.19,178.65Z" style="fill:#fff"></path></g></g></svg>